<svg xmlns="http://www.w3.org/2000/svg" fill="none" viewBox="0 0 31 25">
  <path d="M11.075 24.422c-1.688 0-3-1.313-3-3h5.953c0 1.687-1.313 3-2.953 3zm10.078-6.985c.281.282.422.657.422.985-.047.797-.61 1.5-1.547 1.5H2.075c-.938 0-1.5-.703-1.5-1.5-.047-.328.093-.703.375-.985.89-.984 2.625-2.437 2.625-7.265 0-3.61 2.53-6.516 6-7.266v-.984c0-.797.656-1.5 1.5-1.5.797 0 1.453.703 1.453 1.5v.984c3.469.75 6 3.657 6 7.266 0 4.828 1.734 6.281 2.625 7.265z" fill="#FCFCFC"/>
  <rect x="13.661" y="2.172" width="16.045" height="15.5" rx="7.75" fill="#03A52D"/>
  <path d="M17.877 7.422v-1.29h2.41v7.29h-1.44v-6h-.97zm4.233 4.42c.64-.533 1.15-.977 1.53-1.33.38-.36.696-.733.95-1.12.253-.387.38-.767.38-1.14 0-.34-.08-.607-.24-.8-.16-.193-.407-.29-.74-.29-.334 0-.59.113-.77.34-.18.22-.274.523-.28.91h-1.36c.026-.8.263-1.407.71-1.82.453-.413 1.026-.62 1.72-.62.76 0 1.343.203 1.75.61.406.4.61.93.61 1.59 0 .52-.14 1.017-.42 1.49-.28.473-.6.887-.96 1.24-.36.347-.83.767-1.41 1.26h2.95v1.16h-4.94v-1.04l.52-.44z" fill="#fff"/>
  <rect x="13.661" y="2.172" width="16.045" height="15.5" rx="7.75" stroke="#FCFCFC" stroke-width="1.5"/>
</svg>
