<svg xmlns="http://www.w3.org/2000/svg" fill="none" viewBox="0 0 58 60">
  <g clip-path="url(#59P69NIveJlsa)">
    <path d="M14.155 4.383H43.19a7.5 7.5 0 017.5 7.5v29.035a7.5 7.5 0 01-7.5 7.5H14.155a7.5 7.5 0 01-7.5-7.5V11.883a7.5 7.5 0 017.5-7.5z" fill="#FCFCFC" stroke="#DDD"/>
    <mask id="59P69NIveJlsb" style="mask-type:alpha" maskUnits="userSpaceOnUse" x="6" y="3" width="46" height="46">
      <path d="M14.155 6.883H43.19a5 5 0 015 5v29.035a5 5 0 01-5 5H14.155a5 5 0 01-5-5V11.883a5 5 0 015-5z" fill="#FCFCFC" stroke="#919191" stroke-width="6"/>
    </mask>
    <g mask="url(#59P69NIveJlsb)">
      <path d="M20.844 35.923C16.3 38.009 11.75 40.095 7.21 42.37c-1.78.948-2.445 3.034-2.275 4.93.083 1.138-.36 2.655.876 3.413 1.175.57 2.553.19 3.829.38h41.234c1.529-.19 1.934-1.707 1.785-2.845.028-1.896.136-3.792-1.308-5.12-1.175-1.137-2.854-1.706-4.29-2.465-3.435-1.516-6.874-3.223-10.31-4.74H20.844z" fill="#2C3E50"/>
      <path d="M20.844 35.923h15.908l-3.977 15.17H24.82l-3.977-15.17z" fill="#BDC3C7"/>
      <path d="M24.823 39.715v5.69l1.989 1.895-1.989 3.793h7.954L30.79 47.3l1.988-1.896v-5.689h-7.954z" fill="#2C3E50"/>
      <path d="M22.83 30.234h11.931v9.481h-11.93v-9.48z" fill="#A69B95"/>
      <path d="M20.845 35.923l1.988-1.896 5.966 5.688 5.965-5.688 1.989 1.896-3.977 9.481-3.977-5.689-3.977 5.69-3.977-9.482z" fill="#ECF0F1"/>
      <path d="M28.8 5.583c-5.892 0-10.774 5.101-11.745 11.793-.226-.06-.478-.124-.684-.06-1.044.325-1.301 2.216-.621 4.207.399 1.17 1.063 2.09 1.74 2.608 1.543 5.722 5.995 9.896 11.31 9.896 5.313 0 9.765-4.174 11.31-9.896.676-.52 1.34-1.44 1.738-2.608.68-1.991.424-3.883-.62-4.207-.207-.064-.458 0-.684.06-.97-6.692-5.853-11.793-11.745-11.793z" fill="#A69B95"/>
      <path d="M20.843 35.923l-3.977 1.896v5.689h3.977l-3.977 1.896 3.977 5.689h3.977l-3.977-15.17zm15.908 0l-3.977 15.17h3.977l3.977-5.689-3.977-1.896h3.977v-5.689l-3.977-1.896z" fill="#34495E"/>
      <path d="M28.799 5.583c-4.063-.19-7.832 2.465-9.903 6.068-1.055 1.707-1.758 3.793-2.068 5.689.665-.19 1.194.19 1.796-.569 1.25-1.138 1.806-2.086 2.26-3.603.776-1.706 2.472-4.361 3.977-3.792 1.379.38 1.99 1.138 3.978 1.138 1.988 0 2.599-.759 3.977-1.138 1.505-.569 3.201 2.086 3.977 3.792.453 1.517.93 2.465 2.181 3.603.603.759 1.13.38 1.796.569-.31-1.896-1.015-3.982-2.068-5.689-2.07-3.603-5.84-6.257-9.903-6.068z" fill="#5E4834"/>
    </g>
  </g>
  <defs>
    <clipPath id="59P69NIveJlsa">
      <path fill="#fff" transform="translate(6 3.638)" d="M0 0h46v46H0z"/>
    </clipPath>
  </defs>
</svg>
